PathFileType	4	(X/Y/Z)	/Users/itak/Documents/Research/Walk-IL/dataset/trc/00293_00010.trc
DataRate	CameraRate	NumFrames	NumMarkers	Units	OrigDataRate	OrigDataStartFrame	OrigNumFrames
100.000000	100.000000	4	53	mm	100.000000	446	714
Frame#	Time	RPSI			LPSI			L3			STRN			T10			C7			CLAV			RBAK			LBAK			LSHO			LUPA			LAEL			LAOL			LWTS			LWPS			LFRA			LIFD			LHPS			LHTS			RSHO			RUPA			RAEL			RAOL			RWTS			RWPS			RFRA			RIFD			RHPS			RBHD			LFHD			RFHD			LBHD			LHIP			RHIP			RASI			LASI			LKNE			LTHI			LANK			LTIP			LTOE			LMT1			LMT5			LHEE			RKNE			RTHI			RANK			RTIP			RTOE			RMT1			RMT5			RHEE			RHTS			
		X1	Y1	Z1	X2	Y2	Z2	X3	Y3	Z3	X4	Y4	Z4	X5	Y5	Z5	X6	Y6	Z6	X7	Y7	Z7	X8	Y8	Z8	X9	Y9	Z9	X10	Y10	Z10	X11	Y11	Z11	X12	Y12	Z12	X13	Y13	Z13	X14	Y14	Z14	X15	Y15	Z15	X16	Y16	Z16	X17	Y17	Z17	X18	Y18	Z18	X19	Y19	Z19	X20	Y20	Z20	X21	Y21	Z21	X22	Y22	Z22	X23	Y23	Z23	X24	Y24	Z24	X25	Y25	Z25	X26	Y26	Z26	X27	Y27	Z27	X28	Y28	Z28	X29	Y29	Z29	X30	Y30	Z30	X31	Y31	Z31	X32	Y32	Z32	X33	Y33	Z33	X34	Y34	Z34	X35	Y35	Z35	X36	Y36	Z36	X37	Y37	Z37	X38	Y38	Z38	X39	Y39	Z39	X40	Y40	Z40	X41	Y41	Z41	X42	Y42	Z42	X43	Y43	Z43	X44	Y44	Z44	X45	Y45	Z45	X46	Y46	Z46	X47	Y47	Z47	X48	Y48	Z48	X49	Y49	Z49	X50	Y50	Z50	X51	Y51	Z51	X52	Y52	Z52	X53	Y53	Z53	

447	4.46	297.232666015625	969.5225219726562	-460.1517333984375	442.3488464355469	987.572265625	-556.4444580078125	371.2609558105469	1057.2314453125	-495.1766357421875	522.9983520507812	1232.002075195312	-297.5693969726562	356.1668701171875	1169.232666015625	-504.7073364257812	403.6249389648438	1412.63232421875	-486.9332275390625	491.8875122070312	1331.444213867188	-354.460205078125	304.6913757324219	1280.102661132812	-474.6359252929688	476.1322021484375	1369.685546875	-559.2278442382812	572.4067993164062	1375.887817382812	-519.0618286132812	613.7132568359375	1266.064331054688	-596.7583618164062	626.0408325195312	1068.42919921875	-632.6486206054688	540.5895385742188	1051.840698242188	-633.7874755859375	661.9241333007812	835.9548950195312	-583.6094970703125	671.81884765625	837.5166015625	-656.0730590820312	643.2396850585938	964.758056640625	-648.8687133789062	677.0972900390625	654.3766479492188	-620.7700805664062	677.1188354492188	750.7803344726562	-667.2943725585938	697.121337890625	741.1654663085938	-605.2625122070312	318.8963928222656	1402.809692382812	-335.1404113769531	259.7146911621094	1347.614624023438	-293.879150390625	225.1438903808594	1079.139526367188	-251.3318023681641	255.2351684570312	1068.8759765625	-341.1349792480469	367.5315246582031	877.4840698242188	-212.9456024169922	287.7141723632812	863.6192016601562	-182.3839111328125	243.5946502685547	1014.961730957031	-223.4723663330078	394.3573303222656	695.1356811523438	-184.7364654541016	323.2658081054688	761.066162109375	-155.9232788085938	367.7582397460938	1567.127319335938	-462.06640625	523.8603515625	1612.670166015625	-324.1331481933594	434.4487915039062	1604.744750976562	-301.5685119628906	511.041015625	1570.918701171875	-495.5759582519531	566.7243041992188	955.45458984375	-552.9659423828125	272.098388671875	909.046630859375	-322.2417907714844	395.9089050292969	929.2744140625	-261.2579650878906	598.8573608398438	957.0347900390625	-409.5343933105469	636.5280151367188	492.0682983398438	-460.2072448730469	633.1911010742188	633.9517211914062	-486.9932556152344	610.5858764648438	36.2169189453125	-529.74169921875	633.2725219726562	260.6074523925781	-500.1439208984375	637.0731201171875	35.26882553100586	-314.8551330566406	573.1595458984375	30.76754760742188	-363.1871032714844	670.273681640625	32.27268981933594	-422.4089050292969	537.2173461914062	35.05702209472656	-545.9639282226562	384.8932189941406	457.6393432617188	-265.1279602050781	332.8362121582031	707.59521484375	-266.408447265625	183.9889678955078	216.7725982666016	-570.070556640625	357.8226928710938	357.8132019042969	-324.3675231933594	294.1288757324219	47.41526794433594	-562.2656860351562	294.1918334960938	101.8857879638672	-605.6912231445312	199.9458465576172	115.312614440918	-538.37109375	197.84033203125	264.1893005371094	-619.7816162109375	393.2318115234375	769.23486328125	-165.6545104980469	
448	4.47	302.4620666503906	969.8662109375	-458.0736389160156	449.1234741210938	987.7778930664062	-552.0885620117188	377.8337097167969	1057.708618164062	-492.5966491699219	526.1447143554688	1232.372314453125	-290.4851684570312	364.0325317382812	1170.6435546875	-502.2826538085938	411.7925415039062	1413.824829101562	-482.1013793945312	496.4042663574219	1331.904541015625	-347.8022155761719	312.3953552246094	1281.376586914062	-472.9845886230469	486.3074340820312	1371.178833007812	-552.7910766601562	581.2896728515625	1377.10595703125	-509.7624816894531	625.7640991210938	1267.53271484375	-585.90673828125	641.6510620117188	1069.77685546875	-620.7604370117188	556.456787109375	1052.616821289062	-625.8033447265625	678.9901123046875	838.8922119140625	-568.60791015625	691.2546997070312	839.7293701171875	-640.6596069335938	660.66943359375	966.3336181640625	-635.5192260742188	698.5342407226562	657.0013427734375	-603.21826171875	698.3574829101562	752.7311401367188	-650.5413818359375	716.6138305664062	744.5707397460938	-587.9071044921875	323.10595703125	1403.432250976562	-332.6554565429688	262.6018371582031	1348.229858398438	-293.607666015625	225.06591796875	1079.723754882812	-254.0878753662109	259.3543395996094	1069.698608398438	-342.1622924804688	361.0085754394531	874.8147583007812	-209.5151672363281	278.8930053710938	862.404296875	-183.9716491699219	240.7347717285156	1015.108703613281	-225.662109375	381.0233459472656	691.7294311523438	-179.7032623291016	309.950927734375	759.4185791015625	-155.6956481933594	375.9212036132812	1568.803955078125	-456.6364135742188	529.4859008789062	1612.408081054688	-315.5258178710938	439.6093444824219	1604.883422851562	-294.71533203125	519.6397705078125	1571.939086914062	-487.4478454589844	573.1901245117188	955.4740600585938	-546.8610229492188	275.5935363769531	910.3842163085938	-320.0603942871094	398.1646728515625	930.6173706054688	-258.0628662109375	603.699951171875	957.4241333007812	-402.9050598144531	638.755859375	491.62451171875	-456.6771545410156	636.8108520507812	633.796875	-481.7939147949219	610.3967895507812	36.52900695800781	-529.4459228515625	634.1927490234375	260.4097595214844	-498.4635620117188	637.0103759765625	34.94979476928711	-314.5540771484375	573.0618896484375	30.54446601867676	-362.9391479492188	670.1535034179688	32.4400634765625	-422.2413330078125	537.102294921875	35.46867752075195	-545.80322265625	394.2585754394531	461.2732543945312	-252.0618286132812	337.6832275390625	710.34716796875	-259.6703491210938	203.0116119384766	214.3956451416016	-559.0731811523438	369.9451904296875	360.5550537109375	-310.8150024414062	317.9200439453125	49.42568969726562	-545.3607788085938	317.0970458984375	102.4006805419922	-590.1758422851562	221.344482421875	114.4183578491211	-524.7125854492188	216.3397979736328	261.3858337402344	-609.3607177734375	380.6611328125	765.8761596679688	-160.6635437011719	
449	4.48	307.5887756347656	970.0881958007812	-455.8520202636719	455.6890563964844	987.9002075195312	-547.6090087890625	384.3607788085938	1057.911865234375	-489.8106994628906	529.1536865234375	1232.754150390625	-283.499755859375	371.8129577636719	1171.851684570312	-499.7484741210938	419.7641906738281	1414.832641601562	-477.2351379394531	500.7177429199219	1332.353149414062	-341.2354736328125	320.0592956542969	1282.42529296875	-471.2585144042969	496.1574096679688	1372.459838867188	-546.2736206054688	589.78955078125	1378.204223632812	-500.5169067382812	637.2504272460938	1268.877807617188	-575.0137939453125	656.7821655273438	1071.071899414062	-608.612060546875	572.0292358398438	1053.24267578125	-617.4041748046875	695.690185546875	841.8868408203125	-553.2738647460938	710.3123168945312	842.0643920898438	-624.83544921875	677.6868896484375	967.9644165039062	-621.8538818359375	719.5684204101562	659.7991943359375	-585.2147216796875	719.2704467773438	754.9392700195312	-633.3662719726562	735.6493530273438	748.0620727539062	-570.1483154296875	327.1268615722656	1403.922973632812	-330.2861328125	265.3409118652344	1348.749633789062	-293.5260925292969	224.6921234130859	1080.26708984375	-257.2418212890625	263.4176025390625	1070.4248046875	-343.2137145996094	354.0827941894531	872.5406494140625	-206.4655609130859	270.0898742675781	861.4354858398438	-186.2525634765625	237.6004180908203	1015.301635742188	-228.3182678222656	367.6512756347656	688.9584350585938	-175.3260345458984	296.7420349121094	758.19482421875	-156.3054046630859	383.8006896972656	1570.383911132812	-451.0594482421875	534.88720703125	1611.943969726562	-306.8720703125	444.6088256835938	1604.825073242188	-287.7619934082031	527.9227905273438	1572.845825195312	-479.2308349609375	579.439208984375	955.4068603515625	-540.8651733398438	278.9712829589844	911.6524047851562	-317.7648010253906	400.5593872070312	931.9171752929688	-254.7832794189453	608.4668579101562	957.6951293945312	-396.3467407226562	640.9851684570312	491.1685485839844	-453.1971435546875	640.2595825195312	633.5673828125	-476.7384643554688	610.2075805664062	36.81692123413086	-529.1548461914062	635.1578369140625	260.2245788574219	-496.7916870117188	636.9347534179688	34.66153335571289	-314.26171875	572.9622802734375	30.34133338928223	-362.708984375	670.025634765625	32.59185791015625	-422.0649108886719	537.0361938476562	35.95177459716797	-545.6827392578125	403.0881958007812	464.9569091796875	-239.2125854492188	342.5163269042969	713.1218872070312	-252.9356079101562	222.1866912841797	210.3493499755859	-547.212890625	381.7171630859375	363.0706176757812	-297.2611694335938	342.9715576171875	51.2186393737793	-527.9813842773438	340.7793579101562	102.6424255371094	-574.0925903320312	243.6976928710938	112.1885223388672	-510.18701171875	234.3904418945312	256.966796875	-598.099853515625	367.8425903320312	763.121826171875	-156.2493896484375	
450	4.49	312.6316223144531	970.1827392578125	-453.4942321777344	462.0682678222656	987.9551391601562	-543.0055541992188	390.8588562011719	1057.829345703125	-486.8141784667969	532.0244140625	1233.126342773438	-276.607421875	379.5238647460938	1172.83056640625	-497.0836791992188	427.5541076660156	1415.65673828125	-472.3337707519531	504.8452453613281	1332.7822265625	-334.7529296875	327.6798400878906	1283.247436523438	-469.4474792480469	505.6863098144531	1373.52294921875	-539.6771240234375	597.9284057617188	1379.18017578125	-491.3346862792969	648.1832275390625	1270.091430664062	-564.134521484375	671.3704833984375	1072.308227539062	-596.26904296875	587.2227172851562	1053.712768554688	-608.5743408203125	711.9756469726562	844.9337158203125	-537.62646484375	728.9075927734375	844.515380859375	-608.6420288085938	694.2110595703125	969.6428833007812	-607.9317016601562	740.2293701171875	662.8263549804688	-566.781494140625	739.8078002929688	757.4365234375	-615.8251342773438	754.2218017578125	751.6782836914062	-552.0567626953125	330.9865417480469	1404.278076171875	-328.0252380371094	267.9669494628906	1349.177368164062	-293.6097106933594	224.0928802490234	1080.806884765625	-260.7164001464844	267.3893432617188	1071.046020507812	-344.2309875488281	346.8086242675781	870.6389770507812	-203.8085479736328	261.4200744628906	860.6907958984375	-189.1632232666016	234.2859802246094	1015.54833984375	-231.3886108398438	354.3476867675781	686.7587280273438	-171.7262268066406	283.8251342773438	757.314208984375	-157.742431640625	391.3922729492188	1571.833618164062	-445.3530578613281	540.0504150390625	1611.298706054688	-298.1903076171875	449.4229736328125	1604.580810546875	-280.73486328125	535.8916625976562	1573.624145507812	-470.94091796875	585.5096435546875	955.261474609375	-534.9346923828125	282.2640075683594	912.7913818359375	-315.37548828125	403.0899353027344	933.1302490234375	-251.3991241455078	613.17041015625	957.8504028320312	-389.8382873535156	643.2191772460938	490.7012023925781	-449.7755126953125	643.5473022460938	633.2843017578125	-471.8246154785156	610.0223388671875	37.08272933959961	-528.876220703125	636.1666259765625	260.0552368164062	-495.1224975585938	636.845947265625	34.38640213012695	-313.9739074707031	572.8579711914062	30.154296875	-362.4959106445312	669.8909301757812	32.72141265869141	-421.8797607421875	537.0037841796875	36.4831428527832	-545.585205078125	411.37744140625	468.6083374023438	-226.6033782958984	347.2991027832031	715.8773803710938	-246.2442626953125	241.4835662841797	204.8286743164062	-534.4757080078125	393.12744140625	365.3078918457031	-283.7367553710938	368.8703308105469	52.78122711181641	-509.8070068359375	365.0079040527344	102.5279846191406	-557.217529296875	266.7501831054688	108.8868942260742	-494.6152954101562	252.1079711914062	250.9812927246094	-586.0748901367188	354.9115295410156	760.9220581054688	-152.5036926269531	
